<svg width="161" height="82" viewBox="0 0 161 82" fill="none" xmlns="http://www.w3.org/2000/svg">
<path d="M160.547 19.7211C107.711 25.4249 53.2595 21.6392 0.145678 19.8725C-0.308502 39.5835 13.4683 64.0644 31.4841 72.0144C49.5252 79.9896 69.7867 80.5954 89.4931 81.0496C99.3841 81.302 109.427 81.5039 119.015 79.1063C144.575 72.7211 163.323 45.9182 160.547 19.7211Z" fill="#234E59"/>
<path d="M107.837 3.08922C106.096 3.06398 104.38 2.98827 102.563 2.88731C83.6138 1.77684 63.9327 -0.24221 44.9833 1.29731C43.2675 1.4235 39.9873 0.817791 38.5995 2.13017C36.808 3.82112 38.3472 7.45541 39.1294 9.24731C41.9554 15.6073 43.9235 22.2954 48.3896 27.7721C58.8862 40.6687 75.489 42.4102 91.0573 41.2997C96.0281 40.9464 100.999 40.2902 105.642 38.4983C112.656 35.7473 118.409 30.1949 122.421 23.9107C125.222 19.494 128.098 14.4464 128.628 9.14636C128.83 7.10208 128.956 4.07351 126.912 3.08922C123.43 1.44874 119.242 2.13017 115.558 2.60969C112.883 2.96303 110.385 3.08922 107.837 3.08922Z" fill="#FBD6C6"/>
</svg>
