<svg width="146" height="109" viewBox="0 0 146 109" fill="none" xmlns="http://www.w3.org/2000/svg">
<path d="M124.652 22.1692C83.7002 22.8507 46.1799 22.5983 4.6224 22.7497C2.5029 22.7497 0.787067 24.0116 0.862764 25.5259C2.14961 50.7387 3.66357 79.2326 4.92518 104.193C4.97564 105.329 5.1018 106.54 6.18679 107.373C7.42317 108.307 9.44177 108.357 11.2585 108.332C16.961 108.307 22.6634 108.206 28.3659 108.08C60.5286 107.508 92.6997 106.927 124.879 106.338C130.481 106.237 134.947 102.982 134.972 99.0192L135.224 29.5135C135.25 25.3997 130.456 22.0683 124.652 22.1692Z" fill="#FBD6C6"/>
<path d="M119.454 3.16493L117.183 8.36398C116.275 10.4083 117.31 12.7806 119.429 13.5378L120.766 14.0173C122.482 14.623 124.4 13.9416 125.333 12.3516L127.15 9.34827C127.731 8.36398 127.857 7.20303 127.503 6.14303L126.62 3.46779C126.065 1.77684 124.4 0.691602 122.634 0.868269C121.221 0.994459 120.009 1.87779 119.454 3.16493Z" fill="#C6A186"/>
<path d="M136.663 25.6521C134.493 27.3683 129.143 30.523 125.56 32.5673C123.971 33.4507 123.92 35.6968 125.434 36.6811L129.042 39.003C129.799 39.5078 130.783 39.533 131.566 39.0788L138.454 35.0911C139.085 34.7126 139.514 34.1068 139.64 33.4002L140.523 27.9488C140.725 26.7373 139.993 25.5764 138.807 25.2483C138.076 25.0211 137.268 25.1726 136.663 25.6521Z" fill="#C6A186"/>
<path d="M144.813 52.4297C143.98 51.7231 142.744 51.3697 141.785 50.8902C140.044 50.0069 137.571 47.1802 135.452 47.5083C133.534 47.8111 129.673 54.474 130.834 56.064C131.717 57.2754 132.6 59.1431 133.736 60.0769C135.603 61.5659 139.564 60.6573 141.634 60.1021C143.627 59.5973 145.999 56.4426 145.746 54.1459C145.645 53.3888 145.292 52.8335 144.813 52.4297Z" fill="#C6A186"/>
<path d="M104.416 20.6297L106.762 26.0306C107.646 27.9992 106.838 30.3211 104.946 31.3306C103.23 32.2644 101.11 31.8606 99.8487 30.422L96.291 26.3587C95.635 25.6016 95.2817 24.6425 95.2817 23.633V22.1439C95.2817 19.6454 97.4517 17.7273 99.8992 18.0049L101.11 18.1563C102.574 18.333 103.835 19.2668 104.416 20.6297Z" fill="#C6A186"/>
<path d="M108.402 45.2621L111.43 43.3944C113.499 42.1073 116.174 42.3597 117.965 44.0002C119.378 45.2621 120.009 47.1802 119.681 49.0478L119.126 51.9502C118.899 53.1364 118.293 54.1963 117.41 55.004L116.073 56.2154C114.761 57.4016 112.919 57.8811 111.203 57.4773L110.724 57.3764C108.857 56.9221 107.343 55.534 106.762 53.6916L106.081 51.5464C105.324 49.174 106.283 46.5745 108.402 45.2621Z" fill="#C6A186"/>
<path d="M123.592 69.945L123.996 70.0459C124.955 70.2983 125.46 71.3835 125.005 72.2921L124.854 72.6202C124.274 73.7812 122.659 73.8064 122.053 72.6707L121.801 72.2416C121.145 71.0302 122.255 69.6169 123.592 69.945Z" fill="#C6A186"/>
<path d="M86.501 32.542C87.3085 33.3244 88.1411 34.7125 88.6205 35.5454C88.8476 35.9744 88.7467 36.5044 88.3682 36.8073L86.7029 38.1954C86.2992 38.5487 85.6684 38.4982 85.3151 38.0944C84.1544 36.7568 84.5077 34.4097 84.8357 33.0216C85.0123 32.2644 85.9459 32.012 86.501 32.542Z" fill="#C6A186"/>
<path d="M139.211 12.7554C139.362 12.991 139.505 13.2181 139.64 13.4368C140.119 14.2445 139.943 15.3045 139.211 15.9354L138.934 16.1625C137.899 17.0206 136.309 16.4402 136.057 15.1278C135.956 14.6483 135.956 14.1435 135.981 13.6387C136.057 11.9478 138.277 11.3421 139.211 12.7554Z" fill="#C6A186"/>
<path d="M141.962 39.0031C141.962 39.0031 141.97 39.0031 141.987 39.0031C142.517 38.9779 142.996 39.1798 143.349 39.5583C143.526 39.735 143.677 39.9621 143.778 40.1893C143.829 40.2902 143.904 40.4417 143.904 40.5679C143.904 40.694 143.829 40.8455 143.778 40.9717C143.703 41.1483 143.602 41.5521 143.375 41.6026C143.198 41.6279 143.021 41.5774 142.845 41.5774C142.576 41.5606 142.306 41.5185 142.037 41.4512C141.667 41.3671 141.314 41.224 140.977 41.0221C140.624 40.8455 140.473 40.6183 140.422 40.2145C140.422 40.0126 140.549 39.8864 140.675 39.735C140.952 39.3059 141.432 39.0283 141.962 39.0031Z" fill="#C6A186"/>
</svg>
