<svg width="128" height="92" viewBox="0 0 128 92" fill="none" xmlns="http://www.w3.org/2000/svg">
<path d="M110.847 18.9675C102.42 15.8127 93.1846 15.9137 84.202 15.6866C75.1941 15.4847 65.8581 14.8284 58.0109 10.437C52.3337 7.23178 47.5648 2.1337 41.2315 0.543699C36.6897 -0.617253 31.8451 0.190365 27.5051 1.93179C8.30339 9.67989 -8.95545 40.8994 5.1746 59.4746C12.82 69.4942 28.0098 68.6865 39.2381 74.3651C44.4864 77.0151 48.8768 81.1289 54.1251 83.7537C62.9564 88.1703 73.6297 87.9685 82.9908 84.8137C92.352 81.6337 100.552 75.728 107.895 69.1156C111.125 66.188 114.203 63.1342 117.155 59.9037C122.681 53.8718 127.904 46.5023 127.425 38.3251C126.87 29.3656 119.275 22.097 110.847 18.9675Z" fill="#FBD6C6"/>
<path d="M119.174 30.0217C117.18 27.8008 114.531 26.3622 111.781 25.3022C108.702 24.116 105.447 23.3336 102.193 22.7784C95.2789 21.567 88.3148 21.5922 81.3759 22.526C74.5632 23.4093 67.7253 24.9236 60.8116 24.7974C57.3548 24.7217 54.0242 24.0908 50.6935 23.2074C47.4385 22.3493 44.1836 21.466 40.8025 21.1379C34.2673 20.5322 27.606 21.6932 21.5755 24.2927C18.4719 25.6303 15.6459 27.5484 13.1984 29.8955C8.10149 34.7917 4.69514 41.3032 2.75226 48.0165C0.758908 54.856 0.2038 62.1751 1.44018 69.1913C2.5504 75.5513 5.32594 81.8608 10.2462 86.2017C12.7442 88.3975 15.7216 90.0127 18.9261 90.9717C23.9726 92.4608 29.2209 92.1832 34.343 91.0474C37.8251 90.2903 41.2314 89.2808 44.663 88.347C48.2292 87.3543 51.7869 86.37 55.3362 85.3941C62.3844 83.4424 69.4326 81.499 76.4809 79.5641C83.5291 77.6124 90.5773 75.6606 97.6255 73.7089C100.931 72.8003 104.262 71.9675 107.517 70.9327C110.393 69.9989 113.269 68.8884 115.767 67.1722C120.334 64.0427 123.009 59.1717 123.867 53.7455C124.7 48.496 124.195 42.8931 122.933 37.7193C122.252 34.8927 121.117 32.1922 119.174 30.0217C118.568 29.315 117.584 30.3246 118.165 31.006C120.158 33.2774 121.167 36.1294 121.773 39.0317C122.328 41.606 122.681 44.2056 122.807 46.8303C123.034 51.8527 122.353 57.1274 119.527 61.4179C116.222 66.4151 110.544 68.6108 105.019 70.2008C98.3067 72.1441 91.5193 73.936 84.757 75.8036C71.0307 79.5893 57.3128 83.3751 43.6032 87.1608C37.1943 88.9274 30.6086 91.1484 23.8716 90.4922C20.5914 90.1641 17.3365 89.2051 14.4852 87.5141C9.08555 84.3593 5.57827 78.9332 3.81201 73.0274C1.86913 66.5917 1.79343 59.6008 3.00458 53.0136C4.26619 46.3256 6.89034 39.7131 11.1294 34.3122C13.1479 31.7379 15.5198 29.4665 18.2449 27.6746C22.4334 24.9236 27.4546 23.3841 32.4001 22.7279C35.5289 22.2989 38.7082 22.2736 41.8622 22.6774C45.1424 23.0812 48.2964 24.0655 51.5009 24.8732C54.7811 25.706 58.0866 26.2108 61.4677 26.2108C64.7731 26.236 68.0785 25.8827 71.3587 25.4284C78.121 24.4946 84.8327 23.157 91.7211 23.2327C98.2815 23.3084 105.069 24.2674 111.226 26.6146C113.799 27.5989 116.297 28.9617 118.165 31.006C118.795 31.6874 119.779 30.6779 119.174 30.0217Z" fill="#CE774A"/>
</svg>
