<svg width="163" height="105" viewBox="0 0 163 105" fill="none" xmlns="http://www.w3.org/2000/svg">
<path d="M143.774 30.7743C134.69 27.3672 124.345 28.9067 114.656 27.5438C94.798 24.7929 77.9176 9.92765 57.7318 10.6848C41.785 11.2905 26.0401 23.3795 22.5328 39.0776C20.2619 49.2234 23.7945 59.3691 30.5819 66.5872C38.6815 75.2186 48.3707 77.0357 59.8766 77.9948C73.6281 79.1557 86.7489 85.1119 96.3876 94.6267C100.072 98.2357 103.478 102.501 108.474 103.99C111.451 104.873 114.706 104.671 117.86 104.217C135.27 101.693 152.555 90.8915 159.443 74.5119C166.357 58.1324 159.872 36.8315 143.774 30.7743Z" fill="#CE774A"/>
<path d="M120.131 10.7353C113.924 7.88339 107.061 7.90863 100.374 7.37863C96.9174 7.07577 93.5111 6.52053 90.1299 5.66244C86.6227 4.75386 83.1406 3.64339 79.6333 2.68434C67.1686 -0.722799 53.9722 -1.00042 41.4822 2.50767C29.2698 5.94006 18.2433 12.9815 10.3708 23.001C8.40273 25.4996 6.56078 28.1496 5.07207 31.0015C3.48244 34.0805 2.29653 37.3615 1.33771 40.6929C0.404113 43.9234 -0.125767 47.1791 0.0256264 50.561C0.202252 53.8167 0.908755 57.0472 2.04421 60.101C4.34034 66.3096 8.27657 71.8367 12.4399 76.9601C16.6537 82.1339 21.4226 86.9039 26.8727 90.7653C37.4703 98.3115 50.4396 101.82 63.3081 102.602C77.7914 103.485 92.2495 100.861 106.304 97.4786C112.46 95.9896 118.668 94.5258 124.597 92.3048C129.846 90.3363 134.968 87.7367 139.08 83.8248C143.471 79.6353 146.196 74.1082 147.155 68.1267C148.215 61.6153 147.331 54.9777 145.389 48.7186C143.345 42.2072 140.266 36.0239 137.087 30.0172C134.362 24.7929 131.284 19.5939 126.994 15.5053C124.95 13.562 122.654 11.9215 120.131 10.7353C119.298 10.3315 118.592 11.5682 119.425 11.9467C124.648 14.4201 128.559 18.7358 131.687 23.5058C135.069 28.6543 137.869 34.3077 140.443 39.9105C145.641 51.2929 149.224 65.3253 142.663 76.9601C136.986 87.0301 125.278 91.0682 114.757 93.8948C101.131 97.5291 87.1273 100.734 72.972 101.29C60.1793 101.769 47.0333 99.9267 35.4769 94.2229C23.8449 88.5191 14.6099 78.752 7.64577 67.9501C4.13848 62.5239 1.56479 56.3405 1.4134 49.8039C1.3377 46.4472 2.04422 43.2672 3.00304 40.062C3.9871 36.8063 5.19824 33.6262 6.86357 30.6734C12.9445 19.8715 22.886 11.3915 34.2153 6.54577C45.6455 1.67482 58.514 0.286723 70.7516 2.20482C77.4634 3.23958 83.8471 5.56148 90.4075 7.17672C93.6877 7.98434 97.0184 8.51434 100.374 8.79196C103.654 9.04434 106.935 9.17053 110.19 9.54911C113.344 9.92768 116.523 10.6091 119.425 11.9467C120.232 12.3253 120.964 11.1139 120.131 10.7353Z" fill="#234E59"/>
</svg>
