<svg width="303" height="414" viewBox="0 0 303 414" fill="none" xmlns="http://www.w3.org/2000/svg">
<path d="M297.711 123.595C281.231 140.201 264.13 156.214 246.407 171.634C229.057 186.804 211.053 201.038 192.864 215.178C175.234 228.944 157.604 242.896 141.653 258.628C126.728 273.424 113.855 289.905 103.874 308.447C99.1166 317.249 95.1056 326.426 91.8408 335.884C93.893 319.309 98.7436 303.109 104.247 287.283C112.456 263.592 121.97 240.274 129.806 216.395C129.993 215.833 130.179 215.272 130.366 214.71C130.988 213.399 131.64 212.088 132.324 210.777C132.635 210.402 132.884 209.965 133.071 209.466C133.257 209.091 133.351 208.717 133.537 208.342C136.025 203.348 138.605 198.385 141.28 193.453C146.037 186.336 151.913 180.155 158.257 174.35C169.45 164.142 181.39 155.059 192.117 144.477C214.878 121.909 234.56 95.502 246.034 65.3489C252.283 48.7741 255.828 31.0755 255.641 13.2833C255.641 9.91218 250.698 9.16301 249.672 12.5342C245.381 27.6107 236.799 40.8144 227.564 53.1753C217.77 66.1917 207.509 78.7399 197.901 91.7563C178.125 118.819 159.936 147.193 143.612 176.41C142.181 179.032 140.751 181.623 139.321 184.182C148.742 148.41 153.872 111.421 149.675 74.4323C146.783 48.9614 139.6 23.9586 127.008 1.48428C125.702 -0.856795 122.157 -0.294948 121.504 2.23342C117.4 16.9354 118.612 32.2929 120.198 47.2758C121.784 62.5396 122.81 77.5225 120.478 92.7864C118.053 107.957 113.855 122.846 111.523 138.016C109.284 153.093 108.445 168.263 109.098 183.433C109.844 200.851 112.456 218.175 116.933 235.03C111.616 249.826 106.019 264.528 100.609 279.417C95.8518 292.527 91.4677 306.012 88.576 319.684C88.5138 319.746 88.4826 319.777 88.4826 319.777C87.7363 314.159 86.8347 308.571 85.7775 303.015C89.0424 272.769 88.0161 240.836 79.8074 211.526C70.8525 179.594 55.0882 150.002 37.2716 122.19C27.104 106.365 16.3768 91.0071 5.5562 75.6497C3.22418 72.4658 -1.25338 75.1815 0.332391 78.7399C13.3917 108.612 9.6605 142.417 14.6044 173.975C16.9364 189.239 21.7869 203.66 28.9695 217.332C35.9655 230.629 44.734 242.896 53.3158 255.164C62.2708 267.899 71.1324 280.728 78.0352 294.681C77.973 294.931 77.973 295.212 78.0352 295.524C78.6571 298.146 79.2168 300.768 79.7143 303.39C79.6521 303.952 79.59 304.514 79.5278 305.075C79.4345 306.106 79.8076 306.948 80.4606 307.417C82.7926 320.433 84.285 333.543 84.8447 346.747C84.6582 351.148 84.6582 355.549 84.8447 359.95C84.8447 360.325 84.9069 360.637 85.0312 360.887C85.0312 360.949 85.0312 360.98 85.0312 360.98C84.938 377.462 83.3522 393.943 80.3672 410.143C79.621 413.982 85.4043 415.668 86.1506 411.829C88.3893 399.561 89.8818 387.201 90.6281 374.84C90.6903 374.652 90.7215 374.434 90.7215 374.184C90.7836 371.375 90.9701 368.597 91.281 365.85C91.4676 365.725 91.6542 365.569 91.8408 365.382C105.74 350.492 120.478 336.633 136.429 324.085C153.686 310.507 172.062 298.52 190.158 286.16C208.348 273.799 225.885 260.595 240.717 244.301C254.522 229.037 266.182 211.62 274.951 192.985C279.895 182.309 283.626 171.353 287.357 160.209C291.275 148.691 295.566 137.267 302.468 127.247C304.521 124.344 300.136 121.16 297.711 123.595Z" fill="#234E59"/>
</svg>
