<svg width="340" height="286" viewBox="0 0 340 286" fill="none" xmlns="http://www.w3.org/2000/svg">
<path d="M4.00177 70.9675C14.0543 49.9925 40.7898 43.1957 58.8274 30.406C73.5854 19.9551 82.6398 8.77328 100.606 4.09593C119.214 -0.800679 138.963 0.149444 157.784 2.85354C214.25 11.0389 297.166 13.8161 327.323 75.2063C331.244 83.1725 333.312 91.8694 335.023 100.639C344.719 150.702 345.361 239.791 288.61 264.712C241.413 285.468 186.801 290.511 136.539 280.571C87.6305 270.851 66.242 243.153 40.5759 202.81C23.3226 175.696 10.6322 145.513 3.28882 114.087C0.864803 103.709 -0.988862 93.0388 0.579622 82.5147C1.22127 78.2028 2.36199 74.4024 4.00177 70.9675Z" fill="#CE774A"/>
<path d="M85.1353 137.401C86.4899 114.014 97.9683 91.2117 114.651 75.3525C119.357 70.8944 124.49 67.021 130.051 63.8784C129.053 63.2937 128.055 62.7091 127.057 62.1244C126.344 74.6217 121.995 86.6074 115.649 97.2776C109.162 108.24 100.749 117.303 91.9796 126.292C87.5593 130.75 83.3529 135.573 80.8576 141.42C78.0771 147.778 77.2928 154.794 76.6512 161.664C75.2966 175.185 75.2966 188.778 76.7938 202.226C78.5049 217.135 82.2122 231.752 88.4861 245.272C89.6268 247.684 92.9777 245.564 91.9796 243.226C80.2872 215.381 84.9214 182.055 98.3248 155.818C102.46 147.705 107.094 139.812 110.017 131.115C108.734 131.115 107.451 131.115 106.167 131.115C110.374 161.226 97.2554 190.167 91.2666 219.035C89.5555 227.367 88.4148 235.771 88.2009 244.249C89.4842 243.908 90.7438 243.567 91.9796 243.226C78.5762 218.012 79.5743 187.609 65.6005 162.614C61.9645 156.183 57.4016 150.336 51.8406 145.659C50.4147 144.417 47.8481 145.513 48.4898 147.632C53.4091 165.026 51.3416 183.809 57.8294 200.837C61.0377 209.461 66.5273 216.769 72.017 224.005C78.1959 232.093 84.3273 240.229 90.4111 248.415C97.0652 257.477 103.672 266.588 110.231 275.748C111.728 277.867 115.222 275.821 113.724 273.702C102.175 257.574 90.4111 241.593 78.4336 225.759C72.8013 218.377 66.7412 211.069 62.82 202.518C59.1127 194.406 57.7581 185.416 56.8313 176.573C55.7618 166.488 55.1202 156.329 52.3397 146.536C51.2465 147.218 50.1296 147.876 48.9888 148.509C70.3773 166.415 72.6587 196.891 79.7169 222.324C81.927 230.217 84.6362 238.037 88.4861 245.272C89.4842 247.099 92.1934 246.222 92.2647 244.249C92.9064 213.627 106.738 185.49 110.231 155.306C111.229 146.901 111.229 138.424 110.017 130.019C109.732 127.827 106.738 128.338 106.167 130.019C103.529 137.985 99.2516 145.22 95.473 152.602C91.837 159.618 88.7713 166.853 86.4899 174.454C82.0696 189.217 80.2872 205.076 82.0696 220.424C83.0677 228.974 85.1353 237.306 88.4861 245.272C89.6268 244.59 90.7913 243.908 91.9796 243.226C80.715 219.108 78.2197 191.555 80.2872 165.245C80.8576 158.522 81.4279 151.652 83.5668 145.294C85.7769 139.008 90.0546 134.039 94.6175 129.361C103.244 120.518 111.514 111.602 118.073 101.005C125.345 89.3115 130.265 76.0103 131.049 62.1244C131.12 60.5165 129.267 59.5665 128.055 60.2973C107.094 72.283 91.5518 93.8427 84.7075 117.156C82.7112 123.734 81.4992 130.531 81.1428 137.401C80.9289 140.032 84.9927 140.032 85.1353 137.401Z" fill="white"/>
<path d="M82.4969 137.401C81.784 116.425 81.071 95.1581 75.7239 74.7678C74.203 69.0673 72.3018 63.4886 70.0204 58.0317C69.3074 56.4238 66.6695 56.8623 66.3843 58.5432C61.6789 81.2722 60.6808 105.536 70.163 127.169C72.587 132.796 75.7239 137.985 79.4313 142.736C81.071 144.782 83.8515 141.859 82.2831 139.812C68.9509 122.93 65.5288 100.493 67.2399 79.3721C67.8102 72.7215 68.8797 66.1439 70.2343 59.6395C68.9985 59.7857 67.7865 59.9319 66.5982 60.078C76.7221 84.4149 77.6489 111.31 78.5044 137.401C78.5757 140.032 82.5682 140.032 82.4969 137.401Z" fill="white"/>
<path d="M85.777 129.946C86.0622 122.54 86.585 115.159 87.3455 107.802C88.0584 100.713 88.6288 93.3311 90.6963 86.4612C92.6926 79.8106 96.7564 73.9639 99.7508 67.7518C102.674 61.6859 105.169 55.4007 107.094 48.9693C109.376 41.6609 110.873 34.0602 111.728 26.4595C111.942 24.5594 109.447 23.9016 108.306 24.9979C100.036 33.1102 92.3361 42.2456 87.6307 52.9889C82.8539 63.8784 81.0715 76.3757 84.7076 87.8498C85.5631 90.3347 89.413 89.3115 88.6288 86.7536C81.428 64.0976 95.9008 42.8303 111.158 27.9212C110.017 27.434 108.876 26.9468 107.736 26.4595C106.167 39.98 102.317 53.2082 96.4712 65.4131C93.4768 71.5522 89.6269 77.3258 87.3455 83.9033C85.0641 90.5539 84.4224 97.8623 83.6382 104.805C82.6876 113.185 82.0697 121.566 81.7845 129.946C81.6419 132.577 85.6344 132.577 85.777 129.946Z" fill="white"/>
</svg>
