<svg width="137" height="129" viewBox="0 0 137 129" fill="none" xmlns="http://www.w3.org/2000/svg">
<path d="M136.156 56.6211C135.627 48.9992 134.113 41.3773 130.706 34.4873C127.905 28.8844 123.944 23.8873 119.326 19.6725C109.536 10.713 96.9455 5.05965 84.1023 2.13203C69.5433 -1.14893 53.7479 -0.947021 39.8449 4.88298C28.0867 9.80441 17.9181 18.4358 10.6765 28.8844C3.30867 39.5096 -0.905117 52.3558 0.457424 65.3535C1.89566 78.9568 9.06162 90.8692 17.3883 101.368C21.7282 106.845 26.3962 112.145 31.8211 116.587C37.4479 121.18 43.7812 124.663 50.8462 126.48C58.214 128.373 65.8846 128.625 73.4543 128.171C80.6455 127.767 87.8619 126.682 94.7503 124.537C101.487 122.442 107.896 119.312 113.447 114.921C118.242 111.135 122.304 106.466 125.584 101.318C132.296 90.7682 135.702 78.2249 136.257 65.7825C136.409 62.7287 136.358 59.6749 136.156 56.6211C136.106 55.7125 134.668 55.7125 134.743 56.6211C135.576 68.8615 133.684 81.4301 128.637 92.6611C126.164 98.1377 122.96 103.286 118.973 107.779C114.734 112.523 109.663 116.41 103.985 119.313C97.6772 122.518 90.7888 124.486 83.8247 125.647C76.6588 126.808 69.2657 127.262 62.0241 126.783C54.6815 126.278 47.4146 124.613 40.9299 121.079C34.8994 117.798 29.7016 113.205 25.0336 108.182C20.4414 103.236 16.2023 97.8854 12.468 92.2573C8.85976 86.8058 5.78142 81.0011 3.83854 74.742C1.87043 68.382 1.18916 61.6939 1.89566 55.0815C2.5517 48.9487 4.49458 42.9673 7.21966 37.4654C12.8212 26.2849 21.7787 16.6944 32.4519 10.2335C44.5381 2.91441 58.7944 0.466312 72.773 1.75346C86.2218 2.99012 99.721 7.40679 110.975 14.9277C116.122 18.3601 120.79 22.5244 124.575 27.4206C128.713 32.7458 131.564 38.8787 133.103 45.4658C133.986 49.1254 134.466 52.8606 134.743 56.6211C134.794 57.5296 136.232 57.5296 136.156 56.6211Z" fill="#234E59"/>
<path d="M128.511 65.8077C128.284 52.3558 121.623 39.8377 113.675 28.9854C109.007 22.6506 103.733 16.6187 97.097 12.3787C38.432 -24.8475 -22.7814 78.553 40.274 113.306C62.9578 125.824 93.4888 120.701 112.034 102.63C121.926 92.9639 128.738 79.6382 128.511 65.8077Z" fill="#234E59"/>
</svg>
