<svg width="120" height="110" viewBox="0 0 120 110" fill="none" xmlns="http://www.w3.org/2000/svg">
<path d="M55.6625 2.57746C50.0357 4.44508 44.7369 7.22127 40.0185 10.7798C37.8233 12.4203 35.7795 14.2122 33.8618 16.1808C31.8685 18.2251 30.1275 20.5218 28.3864 22.7932C20.9682 32.6108 14.9377 43.4884 10.8248 55.0727C9.31088 59.2875 8.09974 63.4517 7.89789 67.9441C7.69603 72.0327 8.17543 76.1717 9.33611 80.1089C11.9603 89.0937 17.9655 96.6903 25.8885 101.612C35.4263 107.568 47.134 109.688 58.2614 109.208C69.3131 108.729 80.2639 105.397 89.2214 98.7851C93.2585 95.7818 96.8415 92.2232 99.8189 88.1598C103.276 83.4655 105.824 78.1403 107.717 72.6132C109.71 66.7075 110.972 60.5746 112.107 54.4417C113.343 47.7537 114.403 40.9141 113.646 34.0998C113.041 28.7998 111.3 23.727 108.448 19.2346C105.294 14.2627 100.954 10.2751 95.9836 7.19605C90.8867 4.01605 85.2095 1.74461 79.3051 0.709853C73.9054 -0.249195 68.4048 -0.223957 63.0303 0.709853C60.5323 1.1389 58.0596 1.76984 55.6625 2.57746C54.8046 2.85508 55.1579 4.21795 56.041 3.94033C66.3105 0.533183 77.4379 0.53318 87.5561 4.5208C93.1071 6.69128 98.4059 9.94699 102.62 14.187C106.228 17.8213 109.029 22.2632 110.669 27.1341C112.637 32.9389 112.788 39.1475 112.107 45.2046C111.754 48.4603 111.173 51.6908 110.593 54.9213C110.013 57.9246 109.407 60.9532 108.701 63.9565C107.288 69.8875 105.395 75.7427 102.544 81.1437C100.223 85.5351 97.2705 89.5732 93.7379 93.056C86.1683 100.552 76.2268 105.271 65.7554 107.013C54.9812 108.805 43.4249 107.896 33.2815 103.782C24.425 100.198 16.8553 93.7122 12.7172 85.0303C9.33612 77.9132 8.32682 69.6098 10.1435 61.9375C10.7239 59.5398 11.5566 57.1927 12.3892 54.896C13.3985 52.0862 14.5255 49.3184 15.7703 46.5927C18.2179 41.217 21.0943 36.0179 24.3241 31.046C26.023 28.4381 27.8061 25.8975 29.6733 23.4241C31.3386 21.2284 33.0544 19.0327 34.9973 17.0389C38.8326 13.1018 43.3492 9.82081 48.219 7.27176C50.717 5.95938 53.3411 4.82366 56.041 3.94033C56.8989 3.63747 56.5204 2.27461 55.6625 2.57746Z" fill="#FBD6C6"/>
<path d="M27.7303 87.6046C39.0596 94.0403 50.8683 99.6179 63.0303 104.363C65.9572 105.498 68.9346 106.609 72.0382 107.215C75.0156 107.82 78.0434 107.921 81.0461 107.442C86.7233 106.533 91.9212 103.681 96.4125 100.173C104.26 94.0403 110.77 85.9389 114.857 76.8532C118.667 68.3732 120.358 58.9594 119.046 49.7222C117.709 40.1822 113.116 31.3994 106.455 24.4841C99.0619 16.7865 89.4989 11.3855 79.3555 8.1803C68.758 4.7984 57.3782 3.78888 46.3517 5.3284C40.5231 6.13602 34.5935 7.59983 29.5975 10.8303C24.5006 14.1113 20.9933 19.1589 17.4356 23.9541C15.3666 26.7135 13.2975 29.4813 11.2285 32.2575C9.31081 34.8317 7.34271 37.406 5.50075 40.0308C3.81019 42.5041 2.27102 45.0784 1.2365 47.8798C0.252443 50.5046 -0.151276 53.3313 0.0505817 56.1579C0.93371 68.0956 10.6734 76.8532 20.0597 82.986C22.5577 84.6012 25.1314 86.1408 27.7303 87.6046C28.5125 88.0589 29.219 86.8474 28.4368 86.3932C18.6467 80.8155 7.92305 74.1274 3.30555 63.3255C1.11034 58.2527 0.757081 52.6498 2.90182 47.5013C4.01204 44.7503 5.67738 42.2265 7.39317 39.8036C9.26036 37.1789 11.2285 34.6298 13.1461 32.0303C15.1311 29.3887 17.1076 26.7471 19.0757 24.1056C20.842 21.7332 22.583 19.3355 24.5511 17.1146C26.4435 14.9694 28.5882 13.0513 31.061 11.5874C33.5338 10.0984 36.2336 9.06364 38.9839 8.28126C44.3836 6.74174 50.0609 6.11078 55.6624 6.03506C61.1126 5.98459 66.5375 6.53983 71.8615 7.67554C82.0806 9.84602 92.0221 14.1113 100.197 20.6984C107.717 26.7303 113.646 34.6803 116.371 43.9932C118.894 52.5994 118.516 61.7608 115.867 70.2913C113.041 79.3265 107.742 87.4784 101.055 94.1413C97.2452 97.927 93.0061 101.385 88.1616 103.707C85.6636 104.893 83.0142 105.751 80.2639 106.129C77.2612 106.558 74.1829 106.306 71.2307 105.599C68.1776 104.867 65.2507 103.732 62.349 102.596C59.422 101.435 56.5119 100.224 53.6186 98.9617C47.8152 96.4379 42.0875 93.687 36.4859 90.7594C33.7777 89.346 31.0946 87.8906 28.4368 86.3932C27.6546 85.9389 26.9229 87.1503 27.7303 87.6046Z" fill="#FBD6C6"/>
</svg>
