<svg width="427" height="401" viewBox="0 0 427 401" fill="none" xmlns="http://www.w3.org/2000/svg">
<path d="M193.564 392.616C175.13 386.041 158.167 375.931 143.573 363.215C128.915 350.499 116.754 335.24 107.473 318.43C97.7432 300.752 91.7264 281.648 88.654 261.861C85.3256 240.461 85.5816 218.379 90.0622 197.166C94.6708 175.58 103.568 155.048 115.858 136.564C117.437 134.166 119.079 131.809 120.786 129.493C122.131 127.632 118.994 125.895 117.65 127.756C104.208 146.24 93.9668 166.958 88.334 188.978C82.7652 210.378 81.549 232.646 84.1093 254.479C86.4777 275.197 91.8544 295.356 101.2 314.151C109.905 331.58 121.747 347.646 136.084 361.23C150.358 374.752 167.193 385.793 185.627 393.298C187.932 394.25 190.257 395.139 192.604 395.966C194.78 396.71 195.677 393.36 193.564 392.616Z" fill="#234E59"/>
<path d="M119.378 128.873C119.954 115.102 127.315 102.759 136.148 92.338C145.301 81.6692 156.247 72.6751 165.208 61.8202C170.201 55.8034 174.553 49.2905 177.498 42.0952C176.346 41.9298 175.172 41.7644 173.977 41.599C173.849 54.3148 163.416 64.1772 157.783 74.8461C156.247 77.6994 154.967 80.6147 154.135 83.6541C153.174 87.3758 152.662 91.1595 151.19 94.6951C148.31 101.27 142.997 106.48 137.876 111.381C131.796 117.335 124.114 121.491 117.97 127.384C116.305 128.935 118.866 131.416 120.466 129.865C126.163 124.407 133.204 120.561 138.965 115.226C144.341 110.326 149.782 104.992 153.238 98.6028C156.695 92.1519 156.887 84.7085 160.087 78.1336C163.032 72.1789 167.064 66.8444 170.585 61.2619C174.361 55.2452 177.498 48.7323 177.562 41.599C177.626 39.4901 174.745 39.428 174.041 41.1648C168.665 54.1287 158.551 64.4874 148.566 74.3499C138.516 84.3364 128.339 94.3849 121.874 106.977C118.354 113.8 116.113 121.181 115.793 128.873C115.729 131.106 119.314 131.106 119.378 128.873Z" fill="#234E59"/>
<path d="M93.7105 182.155C84.2372 177.254 76.4921 169.687 71.3074 160.569C68.7471 155.917 66.9549 151.017 65.8027 145.868C64.5865 140.534 63.8184 135.137 62.6023 129.865C61.1941 124.034 59.0178 118.514 55.1773 113.8C54.3238 114.627 53.4704 115.454 52.6169 116.281C60.298 123.724 66.5708 132.532 70.9874 142.147C75.084 151.079 76.8763 160.755 80.9728 169.687C83.0851 174.463 86.0294 178.867 90.19 182.279C91.9823 183.705 94.5426 181.224 92.7504 179.798C85.1333 173.595 82.317 164.105 79.5646 155.235C76.4922 145.372 72.6517 136.006 66.6988 127.446C63.3064 122.546 59.4659 117.956 55.1773 113.8C53.5131 112.187 51.2087 114.544 52.6169 116.281C59.7219 124.841 59.9779 136.75 62.3462 146.985C64.7145 157.281 69.8993 166.834 77.3883 174.463C81.6128 178.743 86.5416 182.341 91.9183 185.194C93.9666 186.249 95.7588 183.209 93.7105 182.155Z" fill="#234E59"/>
<path d="M94.1587 182.775C96.079 176.2 100.304 170.555 105.296 165.717C110.097 161.065 115.602 156.909 121.554 153.684C133.396 147.357 146.838 144.752 159.384 140.1C166.425 137.495 173.145 134.207 179.098 129.617C178.074 129.245 177.05 128.852 176.026 128.438C176.986 136.254 167.769 140.038 161.944 143.015C155.607 146.24 150.422 150.893 145.814 156.165C141.269 161.375 137.173 166.958 132.564 172.044C127.827 177.255 122.387 182.341 115.09 183.705C107.729 185.132 99.7915 183.892 92.4945 182.527C90.2542 182.093 89.2941 185.504 91.5344 185.876C98.5113 187.241 105.872 188.296 112.977 187.551C116.562 187.179 119.954 186.311 123.091 184.636C126.611 182.713 129.748 180.046 132.564 177.193C142.933 166.834 149.974 153.126 163.544 146.116C170.521 142.457 180.763 137.805 179.61 128.438C179.418 126.826 177.818 126.205 176.538 127.198C165.72 135.572 151.895 138.859 139.029 143.015C132.564 145.062 126.163 147.357 120.146 150.458C114.065 153.684 108.433 157.964 103.44 162.616C97.7432 167.95 92.8785 174.401 90.6382 181.845C89.9982 184.016 93.5186 184.946 94.1587 182.775Z" fill="#234E59"/>
<path d="M86.6706 223.838C82.8941 218.503 79.1176 213.045 75.3411 207.71C71.6926 202.438 67.9801 197.104 63.4995 192.451C58.8909 187.675 53.3861 183.767 46.9212 181.596C40.3283 179.363 33.1594 178.929 26.2465 179.177C22.2779 179.239 18.2453 179.612 14.2768 179.984C10.3723 180.294 6.33973 180.666 3.01128 182.961C1.85912 183.767 1.85909 185.752 3.45931 186.125C7.68389 187.076 11.9085 188.027 16.1331 188.978C19.7176 189.846 23.3661 190.591 26.8866 191.707C30.023 192.7 33.1594 194.188 35.3997 196.545C37.576 198.778 38.7281 201.756 41.2244 203.741C44.1048 206.098 47.5614 205.849 50.9538 206.656C54.2183 207.338 56.6506 209.571 58.4428 212.238C62.0913 217.697 63.6276 224.582 69.1323 228.8C73.933 232.46 82.1261 232.584 85.5825 227.001C86.7347 225.078 83.6622 223.341 82.4461 225.264C81.1659 227.311 78.7976 228.056 76.3652 227.931C73.5489 227.807 71.2446 226.319 69.4524 224.272C65.1638 219.496 63.8836 212.921 59.659 208.02C57.6107 205.725 54.9864 203.927 51.914 203.244C48.7775 202.562 45.257 202.934 42.8247 200.453C40.7764 198.344 39.5602 195.553 37.3199 193.444C35.0156 191.335 32.1353 189.908 29.1909 188.792C25.6064 187.489 21.8939 186.745 18.2454 185.938C13.6368 184.863 9.02807 183.809 4.41944 182.775C4.54746 183.809 4.69686 184.863 4.86755 185.938C7.61992 184.016 11.0124 183.705 14.2768 183.457C17.6053 183.147 20.8697 182.899 24.1981 182.713C30.9191 182.403 37.768 182.589 44.2969 184.45C56.9706 188.047 64.7157 198.654 71.7567 208.765C75.7252 214.347 79.6297 219.992 83.5343 225.636C84.8144 227.435 87.9508 225.698 86.6706 223.838Z" fill="#234E59"/>
<path d="M86.4141 228.242C92.3669 221.232 100.752 216.456 109.969 214.844C114.706 213.975 119.507 214.099 124.243 215.03C129.492 216.084 134.549 217.139 139.861 216.332C145.494 215.526 150.743 212.983 154.967 209.261C153.986 209.013 152.983 208.744 151.959 208.455C152.855 212.797 150.295 217.077 146.966 219.806C142.934 223.093 137.429 224.272 132.372 224.706C126.74 225.14 121.171 224.83 115.602 225.574C112.786 225.885 110.033 226.505 107.409 227.435C104.785 228.366 102.288 229.544 99.6639 230.413C95.3753 231.901 88.9104 232.77 86.158 228.242C85.2193 228.945 84.2804 229.648 83.3416 230.351C83.9391 230.971 84.5365 231.591 85.1339 232.211C86.6701 233.886 89.1664 231.405 87.6302 229.73C87.0755 229.151 86.4994 228.552 85.902 227.931C84.4938 226.443 82.0615 228.304 83.0856 230.04C85.6459 234.32 91.0227 235.561 95.8233 234.941C102.032 234.134 107.473 230.537 113.618 229.358C125.459 227.125 139.029 230.537 149.143 222.535C153.687 218.937 156.632 213.293 155.415 207.524C155.159 206.222 153.367 205.974 152.407 206.78C148.695 210.067 143.958 212.3 138.965 212.983C133.524 213.789 128.34 212.114 123.027 211.308C113.81 209.819 104.273 211.618 96.0794 216.022C91.4068 218.503 87.2462 221.853 83.8537 225.823C82.4456 227.497 84.9419 229.978 86.4141 228.242Z" fill="#234E59"/>
<path d="M88.6543 270.111C84.1737 259.938 75.4685 251.688 64.9711 247.346C59.1463 244.927 53.0014 243.935 46.6645 243.749C39.3035 243.563 32.0066 244.183 24.7096 243.252C17.0285 242.322 9.53947 239.903 2.75455 236.243C1.02632 235.313 -1.02198 237.67 0.578239 238.972C10.1795 246.85 21.8292 251.502 33.0307 256.775C38.5355 259.38 44.0402 262.171 49.0329 265.645C53.9616 269.056 58.5062 273.708 64.715 274.701C72.3321 276.003 79.437 272.282 86.99 272.406C89.2943 272.406 89.2943 268.932 86.99 268.932C80.3971 268.808 74.2523 271.661 67.7234 271.537C61.4505 271.413 56.906 267.071 52.1693 263.598C42.504 256.464 31.0464 252.246 20.293 246.974C14.2121 244.059 8.2593 240.771 3.07459 236.491C2.34916 237.401 1.62371 238.311 0.898283 239.221C6.72308 242.384 12.996 244.679 19.5249 245.92C26.5018 247.284 33.4787 247.284 40.5837 247.222C47.2406 247.098 53.8975 247.284 60.2984 249.331C65.5471 251.006 70.4758 253.735 74.6364 257.271C79.373 261.303 83.0855 266.265 85.5179 271.909C85.9019 272.778 87.2461 272.964 88.0142 272.53C88.9103 272.033 89.0383 270.979 88.6543 270.111Z" fill="#234E59"/>
<path d="M89.294 270.793C93.7746 272.22 96.5269 276.313 100.111 279.105C104.272 282.33 109.329 283.757 114.577 284.315C120.466 284.873 126.419 284.191 132.308 283.943C138.517 283.695 144.341 284.439 150.358 285.494C156.887 286.61 163.544 287.54 170.009 285.804C171.929 285.245 171.609 282.268 169.561 282.33C164.824 282.578 162.072 277.182 159.128 274.39C156.951 272.282 154.263 270.979 151.51 269.8C148.566 268.498 145.558 267.195 142.485 266.203C139.157 265.148 135.764 264.466 132.308 264.404C128.915 264.28 125.523 264.59 122.13 264.714C118.61 264.776 115.346 264.342 112.017 263.35C108.817 262.357 105.68 261.117 102.416 260.558C96.783 259.69 90.2541 260.992 87.2457 266.017C86.0295 267.94 89.166 269.738 90.3181 267.816C92.9425 263.536 98.8313 263.287 103.312 264.342C106.384 265.024 109.329 266.203 112.337 267.071C115.538 267.94 118.802 268.25 122.13 268.188C125.523 268.126 128.915 267.753 132.308 267.878C135.572 267.94 138.709 268.622 141.781 269.676C144.79 270.669 147.734 271.909 150.614 273.212C153.239 274.329 155.479 275.631 157.399 277.678C160.792 281.214 163.928 286.052 169.561 285.866C169.39 284.708 169.241 283.55 169.113 282.392C163.416 283.943 157.591 283.199 151.895 282.206C146.07 281.214 140.309 280.221 134.356 280.407C123.987 280.655 111.313 283.385 102.48 276.499C98.3832 273.336 95.3749 269.118 90.2542 267.443C88.0779 266.699 87.1177 270.049 89.294 270.793Z" fill="#234E59"/>
<path d="M295.786 388.274C316.077 380.893 334.512 369.604 351.858 357.136C360.371 350.995 368.692 344.544 376.949 338.155C385.078 331.829 393.656 325.874 400.632 318.368C413.69 304.35 421.883 286.548 425.084 268.002C426.812 258.077 427.26 248.029 425.852 238.042C424.508 228.18 421.499 218.627 417.531 209.447C413.626 200.391 408.826 191.769 403.897 183.209C398.648 174.029 393.015 165.035 389.367 155.172C382.006 135.386 380.342 114.296 375.925 93.8267C372.021 75.5904 365.236 57.9744 353.906 42.7775C343.025 28.1389 328.431 16.1675 311.276 8.84814C276.584 -5.91456 234.594 -1.69661 202.654 17.7182C198.685 20.1993 194.844 22.8665 191.196 25.7198C189.404 27.1464 191.964 29.6276 193.756 28.2009C222.688 5.4366 263.654 -2.56504 299.371 8.22785C316.781 13.5002 332.335 23.4868 344.369 36.7608C356.531 50.0968 364.916 66.3482 369.716 83.468C375.221 103.069 376.757 123.476 381.878 143.139C384.374 152.877 387.895 162.368 392.887 171.176C397.88 179.984 403.065 188.606 407.801 197.476C417.019 214.968 423.804 233.576 423.036 253.487C422.331 272.033 416.635 290.58 405.945 306.087C400.568 313.902 393.912 320.601 386.359 326.432C378.165 332.759 370.1 339.086 361.843 345.351C345.265 357.942 328.047 370.038 309.036 378.97C304.385 381.162 299.648 383.147 294.826 384.925C292.714 385.731 293.61 389.081 295.786 388.274Z" fill="#234E59"/>
<path d="M192.156 395.78C203.485 400.556 216.863 400.494 229.025 399.873C244.131 399.067 259.173 396.71 274.023 393.609C281.32 392.058 288.617 390.321 295.786 388.274C298.026 387.654 297.066 384.304 294.826 384.925C281.64 388.646 268.198 391.5 254.692 393.609C240.674 395.78 226.336 397.268 212.127 396.4C205.982 395.966 199.645 395.159 193.948 392.74C191.836 391.872 190.044 394.849 192.156 395.78Z" fill="#234E59"/>
</svg>
